<svg xmlns="http://www.w3.org/2000/svg" version="1.1" xmlns:xlink="http://www.w3.org/1999/xlink" xmlns:svgjs="http://svgjs.dev/svgjs" width="1440" height="560" preserveAspectRatio="none" viewBox="0 0 1440 560">
    <g mask="url(&quot;#SvgjsMask1000&quot;)" fill="none">
        <rect width="1440" height="560" x="0" y="0" fill="#1F232F"></rect>
        <path d="M-61.35 350.87L-61.35 350.87" stroke="#132e65" stroke-width="1.5"></path>
        <path d="M-61.35 350.87L-60.39 542.26" stroke="#132e65" stroke-width="1.5"></path>
        <path d="M-61.35 350.87L44.04 548.07" stroke="#132e65" stroke-width="1.5"></path>
        <path d="M-60.39 542.26L-60.39 542.26" stroke="#132e65" stroke-width="1.5"></path>
        <path d="M-60.39 542.26L44.04 548.07" stroke="#132e65" stroke-width="1.5"></path>
        <path d="M-60.39 542.26L-39 694.48" stroke="#132e65" stroke-width="1.5"></path>
        <path d="M-60.39 542.26L56.07 673.72" stroke="#132e65" stroke-width="1.5"></path>
        <path d="M-60.39 542.26L239.54 501.65" stroke="#132e65" stroke-width="1.5"></path>
        <path d="M-39 694.48L-39 694.48" stroke="#132e65" stroke-width="1.5"></path>
        <path d="M-39 694.48L56.07 673.72" stroke="#132e65" stroke-width="1.5"></path>
        <path d="M-39 694.48L44.04 548.07" stroke="#132e65" stroke-width="1.5"></path>
        <path d="M-39 694.48L258.02 701.99" stroke="#132e65" stroke-width="1.5"></path>
        <path d="M-39 694.48L239.54 501.65" stroke="#132e65" stroke-width="1.5"></path>
        <path d="M44.04 548.07L44.04 548.07" stroke="#132e65" stroke-width="1.5"></path>
        <path d="M44.04 548.07L56.07 673.72" stroke="#132e65" stroke-width="1.5"></path>
        <path d="M44.04 548.07L239.54 501.65" stroke="#132e65" stroke-width="1.5"></path>
        <path d="M56.07 673.72L56.07 673.72" stroke="#132e65" stroke-width="1.5"></path>
        <path d="M56.07 673.72L258.02 701.99" stroke="#132e65" stroke-width="1.5"></path>
        <path d="M56.07 673.72L239.54 501.65" stroke="#132e65" stroke-width="1.5"></path>
        <path d="M256.46 374.71L256.46 374.71" stroke="#132e65" stroke-width="1.5"></path>
        <path d="M256.46 374.71L239.54 501.65" stroke="#132e65" stroke-width="1.5"></path>
        <path d="M256.46 374.71L389.29 380.39" stroke="#132e65" stroke-width="1.5"></path>
        <path d="M256.46 374.71L361.51 530.32" stroke="#132e65" stroke-width="1.5"></path>
        <path d="M239.54 501.65L239.54 501.65" stroke="#132e65" stroke-width="1.5"></path>
        <path d="M239.54 501.65L361.51 530.32" stroke="#132e65" stroke-width="1.5"></path>
        <path d="M239.54 501.65L389.29 380.39" stroke="#132e65" stroke-width="1.5"></path>
        <path d="M258.02 701.99L258.02 701.99" stroke="#132e65" stroke-width="1.5"></path>
        <path d="M258.02 701.99L403.42 696.48" stroke="#132e65" stroke-width="1.5"></path>
        <path d="M258.02 701.99L361.51 530.32" stroke="#132e65" stroke-width="1.5"></path>
        <path d="M258.02 701.99L239.54 501.65" stroke="#132e65" stroke-width="1.5"></path>
        <path d="M258.02 701.99L44.04 548.07" stroke="#132e65" stroke-width="1.5"></path>
        <path d="M389.29 380.39L389.29 380.39" stroke="#132e65" stroke-width="1.5"></path>
        <path d="M389.29 380.39L520.53 375.14" stroke="#132e65" stroke-width="1.5"></path>
        <path d="M389.29 380.39L361.51 530.32" stroke="#132e65" stroke-width="1.5"></path>
        <path d="M389.29 380.39L561.39 560.96" stroke="#132e65" stroke-width="1.5"></path>
        <path d="M389.29 380.39L661.59 247.5" stroke="#132e65" stroke-width="1.5"></path>
        <path d="M361.51 530.32L361.51 530.32" stroke="#132e65" stroke-width="1.5"></path>
        <path d="M361.51 530.32L403.42 696.48" stroke="#132e65" stroke-width="1.5"></path>
        <path d="M403.42 696.48L403.42 696.48" stroke="#132e65" stroke-width="1.5"></path>
        <path d="M403.42 696.48L561.39 560.96" stroke="#132e65" stroke-width="1.5"></path>
        <path d="M403.42 696.48L647.09 665.14" stroke="#132e65" stroke-width="1.5"></path>
        <path d="M403.42 696.48L239.54 501.65" stroke="#132e65" stroke-width="1.5"></path>
        <path d="M403.42 696.48L648.57 556.45" stroke="#132e65" stroke-width="1.5"></path>
        <path d="M520.53 375.14L520.53 375.14" stroke="#132e65" stroke-width="1.5"></path>
        <path d="M520.53 375.14L706.47 411.69" stroke="#132e65" stroke-width="1.5"></path>
        <path d="M520.53 375.14L661.59 247.5" stroke="#132e65" stroke-width="1.5"></path>
        <path d="M561.39 560.96L561.39 560.96" stroke="#132e65" stroke-width="1.5"></path>
        <path d="M561.39 560.96L648.57 556.45" stroke="#132e65" stroke-width="1.5"></path>
        <path d="M561.39 560.96L647.09 665.14" stroke="#132e65" stroke-width="1.5"></path>
        <path d="M561.39 560.96L520.53 375.14" stroke="#132e65" stroke-width="1.5"></path>
        <path d="M561.39 560.96L361.51 530.32" stroke="#132e65" stroke-width="1.5"></path>
        <path d="M561.39 560.96L706.47 411.69" stroke="#132e65" stroke-width="1.5"></path>
        <path d="M661.59 247.5L661.59 247.5" stroke="#132e65" stroke-width="1.5"></path>
        <path d="M661.59 247.5L706.47 411.69" stroke="#132e65" stroke-width="1.5"></path>
        <path d="M661.59 247.5L791.45 367.45" stroke="#132e65" stroke-width="1.5"></path>
        <path d="M661.59 247.5L842.46 229.17" stroke="#132e65" stroke-width="1.5"></path>
        <path d="M706.47 411.69L706.47 411.69" stroke="#132e65" stroke-width="1.5"></path>
        <path d="M706.47 411.69L791.45 367.45" stroke="#132e65" stroke-width="1.5"></path>
        <path d="M706.47 411.69L648.57 556.45" stroke="#132e65" stroke-width="1.5"></path>
        <path d="M706.47 411.69L828.41 547.22" stroke="#132e65" stroke-width="1.5"></path>
        <path d="M648.57 556.45L648.57 556.45" stroke="#132e65" stroke-width="1.5"></path>
        <path d="M648.57 556.45L647.09 665.14" stroke="#132e65" stroke-width="1.5"></path>
        <path d="M647.09 665.14L647.09 665.14" stroke="#132e65" stroke-width="1.5"></path>
        <path d="M647.09 665.14L862.29 669.07" stroke="#132e65" stroke-width="1.5"></path>
        <path d="M837.42 99.26L837.42 99.26" stroke="#132e65" stroke-width="1.5"></path>
        <path d="M837.42 99.26L842.46 229.17" stroke="#132e65" stroke-width="1.5"></path>
        <path d="M837.42 99.26L969.01 56.65" stroke="#132e65" stroke-width="1.5"></path>
        <path d="M837.42 99.26L1012.43 206.88" stroke="#132e65" stroke-width="1.5"></path>
        <path d="M837.42 99.26L661.59 247.5" stroke="#132e65" stroke-width="1.5"></path>
        <path d="M837.42 99.26L1008.27 -83.53" stroke="#132e65" stroke-width="1.5"></path>
        <path d="M837.42 99.26L791.45 367.45" stroke="#132e65" stroke-width="1.5"></path>
        <path d="M842.46 229.17L842.46 229.17" stroke="#132e65" stroke-width="1.5"></path>
        <path d="M842.46 229.17L791.45 367.45" stroke="#132e65" stroke-width="1.5"></path>
        <path d="M791.45 367.45L791.45 367.45" stroke="#132e65" stroke-width="1.5"></path>
        <path d="M791.45 367.45L828.41 547.22" stroke="#132e65" stroke-width="1.5"></path>
        <path d="M828.41 547.22L828.41 547.22" stroke="#132e65" stroke-width="1.5"></path>
        <path d="M828.41 547.22L862.29 669.07" stroke="#132e65" stroke-width="1.5"></path>
        <path d="M828.41 547.22L961.28 534.3" stroke="#132e65" stroke-width="1.5"></path>
        <path d="M862.29 669.07L862.29 669.07" stroke="#132e65" stroke-width="1.5"></path>
        <path d="M862.29 669.07L962.94 649.65" stroke="#132e65" stroke-width="1.5"></path>
        <path d="M862.29 669.07L961.28 534.3" stroke="#132e65" stroke-width="1.5"></path>
        <path d="M862.29 669.07L648.57 556.45" stroke="#132e65" stroke-width="1.5"></path>
        <path d="M1008.27 -83.53L1008.27 -83.53" stroke="#132e65" stroke-width="1.5"></path>
        <path d="M1008.27 -83.53L969.01 56.65" stroke="#132e65" stroke-width="1.5"></path>
        <path d="M1008.27 -83.53L1159.3 -58.96" stroke="#132e65" stroke-width="1.5"></path>
        <path d="M1008.27 -83.53L1152.7 64.9" stroke="#132e65" stroke-width="1.5"></path>
        <path d="M969.01 56.65L969.01 56.65" stroke="#132e65" stroke-width="1.5"></path>
        <path d="M969.01 56.65L1012.43 206.88" stroke="#132e65" stroke-width="1.5"></path>
        <path d="M969.01 56.65L1152.7 64.9" stroke="#132e65" stroke-width="1.5"></path>
        <path d="M969.01 56.65L1090.3 231.98" stroke="#132e65" stroke-width="1.5"></path>
        <path d="M969.01 56.65L842.46 229.17" stroke="#132e65" stroke-width="1.5"></path>
        <path d="M1012.43 206.88L1012.43 206.88" stroke="#132e65" stroke-width="1.5"></path>
        <path d="M1012.43 206.88L1090.3 231.98" stroke="#132e65" stroke-width="1.5"></path>
        <path d="M1012.43 206.88L990.84 359.71" stroke="#132e65" stroke-width="1.5"></path>
        <path d="M1012.43 206.88L842.46 229.17" stroke="#132e65" stroke-width="1.5"></path>
        <path d="M1012.43 206.88L1145.83 349.69" stroke="#132e65" stroke-width="1.5"></path>
        <path d="M990.84 359.71L990.84 359.71" stroke="#132e65" stroke-width="1.5"></path>
        <path d="M990.84 359.71L1145.83 349.69" stroke="#132e65" stroke-width="1.5"></path>
        <path d="M990.84 359.71L1090.3 231.98" stroke="#132e65" stroke-width="1.5"></path>
        <path d="M990.84 359.71L1089.16 501.65" stroke="#132e65" stroke-width="1.5"></path>
        <path d="M990.84 359.71L961.28 534.3" stroke="#132e65" stroke-width="1.5"></path>
        <path d="M990.84 359.71L842.46 229.17" stroke="#132e65" stroke-width="1.5"></path>
        <path d="M961.28 534.3L961.28 534.3" stroke="#132e65" stroke-width="1.5"></path>
        <path d="M961.28 534.3L962.94 649.65" stroke="#132e65" stroke-width="1.5"></path>
        <path d="M961.28 534.3L1089.16 501.65" stroke="#132e65" stroke-width="1.5"></path>
        <path d="M961.28 534.3L1136.2 677.31" stroke="#132e65" stroke-width="1.5"></path>
        <path d="M962.94 649.65L962.94 649.65" stroke="#132e65" stroke-width="1.5"></path>
        <path d="M962.94 649.65L828.41 547.22" stroke="#132e65" stroke-width="1.5"></path>
        <path d="M1159.3 -58.96L1159.3 -58.96" stroke="#132e65" stroke-width="1.5"></path>
        <path d="M1159.3 -58.96L1152.7 64.9" stroke="#132e65" stroke-width="1.5"></path>
        <path d="M1159.3 -58.96L1284.83 -47.94" stroke="#132e65" stroke-width="1.5"></path>
        <path d="M1152.7 64.9L1152.7 64.9" stroke="#132e65" stroke-width="1.5"></path>
        <path d="M1152.7 64.9L1291.36 102.96" stroke="#132e65" stroke-width="1.5"></path>
        <path d="M1152.7 64.9L1266.79 195.52" stroke="#132e65" stroke-width="1.5"></path>
        <path d="M1152.7 64.9L1284.83 -47.94" stroke="#132e65" stroke-width="1.5"></path>
        <path d="M1152.7 64.9L1090.3 231.98" stroke="#132e65" stroke-width="1.5"></path>
        <path d="M1090.3 231.98L1090.3 231.98" stroke="#132e65" stroke-width="1.5"></path>
        <path d="M1090.3 231.98L1145.83 349.69" stroke="#132e65" stroke-width="1.5"></path>
        <path d="M1145.83 349.69L1145.83 349.69" stroke="#132e65" stroke-width="1.5"></path>
        <path d="M1145.83 349.69L1275.67 347.36" stroke="#132e65" stroke-width="1.5"></path>
        <path d="M1145.83 349.69L1089.16 501.65" stroke="#132e65" stroke-width="1.5"></path>
        <path d="M1145.83 349.69L1266.79 195.52" stroke="#132e65" stroke-width="1.5"></path>
        <path d="M1089.16 501.65L1089.16 501.65" stroke="#132e65" stroke-width="1.5"></path>
        <path d="M1089.16 501.65L1136.2 677.31" stroke="#132e65" stroke-width="1.5"></path>
        <path d="M1089.16 501.65L962.94 649.65" stroke="#132e65" stroke-width="1.5"></path>
        <path d="M1136.2 677.31L1136.2 677.31" stroke="#132e65" stroke-width="1.5"></path>
        <path d="M1136.2 677.31L1250.43 672.91" stroke="#132e65" stroke-width="1.5"></path>
        <path d="M1136.2 677.31L962.94 649.65" stroke="#132e65" stroke-width="1.5"></path>
        <path d="M1284.83 -47.94L1284.83 -47.94" stroke="#132e65" stroke-width="1.5"></path>
        <path d="M1284.83 -47.94L1291.36 102.96" stroke="#132e65" stroke-width="1.5"></path>
        <path d="M1284.83 -47.94L1414.26 42.59" stroke="#132e65" stroke-width="1.5"></path>
        <path d="M1284.83 -47.94L1266.79 195.52" stroke="#132e65" stroke-width="1.5"></path>
        <path d="M1284.83 -47.94L1008.27 -83.53" stroke="#132e65" stroke-width="1.5"></path>
        <path d="M1291.36 102.96L1291.36 102.96" stroke="#132e65" stroke-width="1.5"></path>
        <path d="M1291.36 102.96L1266.79 195.52" stroke="#132e65" stroke-width="1.5"></path>
        <path d="M1291.36 102.96L1414.26 42.59" stroke="#132e65" stroke-width="1.5"></path>
        <path d="M1266.79 195.52L1266.79 195.52" stroke="#132e65" stroke-width="1.5"></path>
        <path d="M1266.79 195.52L1275.67 347.36" stroke="#132e65" stroke-width="1.5"></path>
        <path d="M1275.67 347.36L1275.67 347.36" stroke="#132e65" stroke-width="1.5"></path>
        <path d="M1275.67 347.36L1414.19 377.97" stroke="#132e65" stroke-width="1.5"></path>
        <path d="M1275.67 347.36L1288.8 521.08" stroke="#132e65" stroke-width="1.5"></path>
        <path d="M1275.67 347.36L1427.59 230.6" stroke="#132e65" stroke-width="1.5"></path>
        <path d="M1288.8 521.08L1288.8 521.08" stroke="#132e65" stroke-width="1.5"></path>
        <path d="M1288.8 521.08L1250.43 672.91" stroke="#132e65" stroke-width="1.5"></path>
        <path d="M1250.43 672.91L1250.43 672.91" stroke="#132e65" stroke-width="1.5"></path>
        <path d="M1250.43 672.91L1462.14 676.69" stroke="#132e65" stroke-width="1.5"></path>
        <path d="M1250.43 672.91L1089.16 501.65" stroke="#132e65" stroke-width="1.5"></path>
        <path d="M1250.43 672.91L1461.47 492.18" stroke="#132e65" stroke-width="1.5"></path>
        <path d="M1250.43 672.91L962.94 649.65" stroke="#132e65" stroke-width="1.5"></path>
        <path d="M1414.26 42.59L1414.26 42.59" stroke="#132e65" stroke-width="1.5"></path>
        <path d="M1414.26 42.59L1427.59 230.6" stroke="#132e65" stroke-width="1.5"></path>
        <path d="M1427.59 230.6L1427.59 230.6" stroke="#132e65" stroke-width="1.5"></path>
        <path d="M1427.59 230.6L1553.65 232.6" stroke="#132e65" stroke-width="1.5"></path>
        <path d="M1427.59 230.6L1414.19 377.97" stroke="#132e65" stroke-width="1.5"></path>
        <path d="M1427.59 230.6L1266.79 195.52" stroke="#132e65" stroke-width="1.5"></path>
        <path d="M1427.59 230.6L1544.67 357.36" stroke="#132e65" stroke-width="1.5"></path>
        <path d="M1427.59 230.6L1291.36 102.96" stroke="#132e65" stroke-width="1.5"></path>
        <path d="M1414.19 377.97L1414.19 377.97" stroke="#132e65" stroke-width="1.5"></path>
        <path d="M1414.19 377.97L1461.47 492.18" stroke="#132e65" stroke-width="1.5"></path>
        <path d="M1414.19 377.97L1544.67 357.36" stroke="#132e65" stroke-width="1.5"></path>
        <path d="M1414.19 377.97L1288.8 521.08" stroke="#132e65" stroke-width="1.5"></path>
        <path d="M1461.47 492.18L1461.47 492.18" stroke="#132e65" stroke-width="1.5"></path>
        <path d="M1461.47 492.18L1605.69 523.38" stroke="#132e65" stroke-width="1.5"></path>
        <path d="M1461.47 492.18L1544.67 357.36" stroke="#132e65" stroke-width="1.5"></path>
        <path d="M1461.47 492.18L1288.8 521.08" stroke="#132e65" stroke-width="1.5"></path>
        <path d="M1462.14 676.69L1462.14 676.69" stroke="#132e65" stroke-width="1.5"></path>
        <path d="M1462.14 676.69L1538.49 710.45" stroke="#132e65" stroke-width="1.5"></path>
        <path d="M1462.14 676.69L1461.47 492.18" stroke="#132e65" stroke-width="1.5"></path>
        <path d="M1462.14 676.69L1605.69 523.38" stroke="#132e65" stroke-width="1.5"></path>
        <path d="M1462.14 676.69L1288.8 521.08" stroke="#132e65" stroke-width="1.5"></path>
        <path d="M1462.14 676.69L1414.19 377.97" stroke="#132e65" stroke-width="1.5"></path>
        <path d="M1600.02 -74.85L1600.02 -74.85" stroke="#132e65" stroke-width="1.5"></path>
        <path d="M1600.02 -74.85L1609.86 73.36" stroke="#132e65" stroke-width="1.5"></path>
        <path d="M1600.02 -74.85L1414.26 42.59" stroke="#132e65" stroke-width="1.5"></path>
        <path d="M1609.86 73.36L1609.86 73.36" stroke="#132e65" stroke-width="1.5"></path>
        <path d="M1609.86 73.36L1553.65 232.6" stroke="#132e65" stroke-width="1.5"></path>
        <path d="M1609.86 73.36L1414.26 42.59" stroke="#132e65" stroke-width="1.5"></path>
        <path d="M1553.65 232.6L1553.65 232.6" stroke="#132e65" stroke-width="1.5"></path>
        <path d="M1553.65 232.6L1544.67 357.36" stroke="#132e65" stroke-width="1.5"></path>
        <path d="M1544.67 357.36L1544.67 357.36" stroke="#132e65" stroke-width="1.5"></path>
        <path d="M1544.67 357.36L1605.69 523.38" stroke="#132e65" stroke-width="1.5"></path>
        <path d="M1605.69 523.38L1605.69 523.38" stroke="#132e65" stroke-width="1.5"></path>
        <path d="M1605.69 523.38L1538.49 710.45" stroke="#132e65" stroke-width="1.5"></path>
        <path d="M1605.69 523.38L1414.19 377.97" stroke="#132e65" stroke-width="1.5"></path>
        <path d="M1538.49 710.45L1538.49 710.45" stroke="#132e65" stroke-width="1.5"></path>
        <path d="M1538.49 710.45L1461.47 492.18" stroke="#132e65" stroke-width="1.5"></path>
        <circle r="5" cx="-61.35" cy="350.87" fill="#132e65"></circle>
        <circle r="5" cx="-60.39" cy="542.26" fill="#132e65"></circle>
        <circle r="5" cx="-39" cy="694.48" fill="#132e65"></circle>
        <circle r="5" cx="44.04" cy="548.07" fill="#132e65"></circle>
        <circle r="5" cx="56.07" cy="673.72" fill="#132e65"></circle>
        <circle r="5" cx="256.46" cy="374.71" fill="#132e65"></circle>
        <circle r="5" cx="239.54" cy="501.65" fill="#132e65"></circle>
        <circle r="5" cx="258.02" cy="701.99" fill="#132e65"></circle>
        <circle r="5" cx="389.29" cy="380.39" fill="#132e65"></circle>
        <circle r="5" cx="361.51" cy="530.32" fill="#132e65"></circle>
        <circle r="5" cx="403.42" cy="696.48" fill="#132e65"></circle>
        <circle r="5" cx="520.53" cy="375.14" fill="#132e65"></circle>
        <circle r="5" cx="561.39" cy="560.96" fill="#132e65"></circle>
        <circle r="5" cx="661.59" cy="247.5" fill="#132e65"></circle>
        <circle r="5" cx="706.47" cy="411.69" fill="#132e65"></circle>
        <circle r="5" cx="648.57" cy="556.45" fill="#132e65"></circle>
        <circle r="5" cx="647.09" cy="665.14" fill="#132e65"></circle>
        <circle r="5" cx="837.42" cy="99.26" fill="#132e65"></circle>
        <circle r="5" cx="842.46" cy="229.17" fill="#132e65"></circle>
        <circle r="5" cx="791.45" cy="367.45" fill="#132e65"></circle>
        <circle r="5" cx="828.41" cy="547.22" fill="#132e65"></circle>
        <circle r="5" cx="862.29" cy="669.07" fill="#132e65"></circle>
        <circle r="5" cx="1008.27" cy="-83.53" fill="#132e65"></circle>
        <circle r="5" cx="969.01" cy="56.65" fill="#132e65"></circle>
        <circle r="5" cx="1012.43" cy="206.88" fill="#132e65"></circle>
        <circle r="5" cx="990.84" cy="359.71" fill="#132e65"></circle>
        <circle r="5" cx="961.28" cy="534.3" fill="#132e65"></circle>
        <circle r="5" cx="962.94" cy="649.65" fill="#132e65"></circle>
        <circle r="5" cx="1159.3" cy="-58.96" fill="#132e65"></circle>
        <circle r="5" cx="1152.7" cy="64.9" fill="#132e65"></circle>
        <circle r="5" cx="1090.3" cy="231.98" fill="#132e65"></circle>
        <circle r="5" cx="1145.83" cy="349.69" fill="#132e65"></circle>
        <circle r="5" cx="1089.16" cy="501.65" fill="#132e65"></circle>
        <circle r="5" cx="1136.2" cy="677.31" fill="#132e65"></circle>
        <circle r="5" cx="1284.83" cy="-47.94" fill="#132e65"></circle>
        <circle r="5" cx="1291.36" cy="102.96" fill="#132e65"></circle>
        <circle r="5" cx="1266.79" cy="195.52" fill="#132e65"></circle>
        <circle r="5" cx="1275.67" cy="347.36" fill="#132e65"></circle>
        <circle r="5" cx="1288.8" cy="521.08" fill="#132e65"></circle>
        <circle r="5" cx="1250.43" cy="672.91" fill="#132e65"></circle>
        <circle r="5" cx="1414.26" cy="42.59" fill="#132e65"></circle>
        <circle r="5" cx="1427.59" cy="230.6" fill="#132e65"></circle>
        <circle r="5" cx="1414.19" cy="377.97" fill="#132e65"></circle>
        <circle r="5" cx="1461.47" cy="492.18" fill="#132e65"></circle>
        <circle r="5" cx="1462.14" cy="676.69" fill="#132e65"></circle>
        <circle r="5" cx="1600.02" cy="-74.85" fill="#132e65"></circle>
        <circle r="5" cx="1609.86" cy="73.36" fill="#132e65"></circle>
        <circle r="5" cx="1553.65" cy="232.6" fill="#132e65"></circle>
        <circle r="5" cx="1544.67" cy="357.36" fill="#132e65"></circle>
        <circle r="5" cx="1605.69" cy="523.38" fill="#132e65"></circle>
        <circle r="5" cx="1538.49" cy="710.45" fill="#132e65"></circle>
        <path d="M-49.88 511.05L-49.88 511.05" stroke="hsl(228.5, 77.2%, 51.5%)" stroke-width="1.5"></path>
        <path d="M-49.88 511.05L64.28 524.63" stroke="hsl(228.5, 77.2%, 51.5%)" stroke-width="1.5"></path>
        <path d="M846.66 407.51L846.66 407.51" stroke="hsl(228.5, 77.2%, 51.5%)" stroke-width="1.5"></path>
        <path d="M846.66 407.51L835.4 517.35" stroke="hsl(228.5, 77.2%, 51.5%)" stroke-width="1.5"></path>
        <path d="M846.66 407.51L962.66 342.04" stroke="hsl(228.5, 77.2%, 51.5%)" stroke-width="1.5"></path>
        <path d="M846.66 407.51L991.38 500.99" stroke="hsl(228.5, 77.2%, 51.5%)" stroke-width="1.5"></path>
        <path d="M846.66 407.51L690.24 558.29" stroke="hsl(228.5, 77.2%, 51.5%)" stroke-width="1.5"></path>
        <path d="M846.66 407.51L1091.12 349.5" stroke="hsl(228.5, 77.2%, 51.5%)" stroke-width="1.5"></path>
        <path d="M846.66 407.51L1095.73 542.32" stroke="hsl(228.5, 77.2%, 51.5%)" stroke-width="1.5"></path>
        <path d="M1148.05 647.14L1148.05 647.14" stroke="hsl(228.5, 77.2%, 51.5%)" stroke-width="1.5"></path>
        <path d="M1148.05 647.14L1095.73 542.32" stroke="hsl(228.5, 77.2%, 51.5%)" stroke-width="1.5"></path>
        <path d="M1148.05 647.14L1296.9 641.69" stroke="hsl(228.5, 77.2%, 51.5%)" stroke-width="1.5"></path>
        <path d="M1304.21 346.58L1304.21 346.58" stroke="hsl(228.5, 77.2%, 51.5%)" stroke-width="1.5"></path>
        <path d="M1304.21 346.58L1276.94 236.5" stroke="hsl(228.5, 77.2%, 51.5%)" stroke-width="1.5"></path>
        <path d="M1455.27 368.27L1455.27 368.27" stroke="hsl(228.5, 77.2%, 51.5%)" stroke-width="1.5"></path>
        <path d="M1455.27 368.27L1561.62 371.17" stroke="hsl(228.5, 77.2%, 51.5%)" stroke-width="1.5"></path>
        <path d="M1455.27 368.27L1304.21 346.58" stroke="hsl(228.5, 77.2%, 51.5%)" stroke-width="1.5"></path>
        <path d="M1561.62 371.17L1561.62 371.17" stroke="hsl(228.5, 77.2%, 51.5%)" stroke-width="1.5"></path>
        <path d="M1561.62 371.17L1608.95 214.22" stroke="hsl(228.5, 77.2%, 51.5%)" stroke-width="1.5"></path>
        <path d="M1561.62 371.17L1608.22 553.54" stroke="hsl(228.5, 77.2%, 51.5%)" stroke-width="1.5"></path>
        <path d="M-76.41 667.86L-76.41 667.86" stroke="hsl(228.5, 77.2%, 51.5%)" stroke-width="1.5"></path>
        <path d="M-76.41 667.86L-49.88 511.05" stroke="hsl(228.5, 77.2%, 51.5%)" stroke-width="1.5"></path>
        <path d="M-76.41 667.86L107.61 660.93" stroke="hsl(228.5, 77.2%, 51.5%)" stroke-width="1.5"></path>
        <path d="M64.28 524.63L64.28 524.63" stroke="hsl(228.5, 77.2%, 51.5%)" stroke-width="1.5"></path>
        <path d="M64.28 524.63L188.23 542.18" stroke="hsl(228.5, 77.2%, 51.5%)" stroke-width="1.5"></path>
        <path d="M64.28 524.63L107.61 660.93" stroke="hsl(228.5, 77.2%, 51.5%)" stroke-width="1.5"></path>
        <path d="M64.28 524.63L-76.41 667.86" stroke="hsl(228.5, 77.2%, 51.5%)" stroke-width="1.5"></path>
        <path d="M64.28 524.63L250.14 652.76" stroke="hsl(228.5, 77.2%, 51.5%)" stroke-width="1.5"></path>
        <path d="M107.61 660.93L107.61 660.93" stroke="hsl(228.5, 77.2%, 51.5%)" stroke-width="1.5"></path>
        <path d="M107.61 660.93L250.14 652.76" stroke="hsl(228.5, 77.2%, 51.5%)" stroke-width="1.5"></path>
        <path d="M107.61 660.93L188.23 542.18" stroke="hsl(228.5, 77.2%, 51.5%)" stroke-width="1.5"></path>
        <path d="M107.61 660.93L-49.88 511.05" stroke="hsl(228.5, 77.2%, 51.5%)" stroke-width="1.5"></path>
        <path d="M188.23 542.18L188.23 542.18" stroke="hsl(228.5, 77.2%, 51.5%)" stroke-width="1.5"></path>
        <path d="M188.23 542.18L250.14 652.76" stroke="hsl(228.5, 77.2%, 51.5%)" stroke-width="1.5"></path>
        <path d="M188.23 542.18L-49.88 511.05" stroke="hsl(228.5, 77.2%, 51.5%)" stroke-width="1.5"></path>
        <path d="M188.23 542.18L406.7 651.63" stroke="hsl(228.5, 77.2%, 51.5%)" stroke-width="1.5"></path>
        <path d="M188.23 542.18L-76.41 667.86" stroke="hsl(228.5, 77.2%, 51.5%)" stroke-width="1.5"></path>
        <path d="M250.14 652.76L250.14 652.76" stroke="hsl(228.5, 77.2%, 51.5%)" stroke-width="1.5"></path>
        <path d="M250.14 652.76L406.7 651.63" stroke="hsl(228.5, 77.2%, 51.5%)" stroke-width="1.5"></path>
        <path d="M406.7 651.63L406.7 651.63" stroke="hsl(228.5, 77.2%, 51.5%)" stroke-width="1.5"></path>
        <path d="M690.24 558.29L690.24 558.29" stroke="hsl(228.5, 77.2%, 51.5%)" stroke-width="1.5"></path>
        <path d="M690.24 558.29L698.42 682.84" stroke="hsl(228.5, 77.2%, 51.5%)" stroke-width="1.5"></path>
        <path d="M690.24 558.29L835.4 517.35" stroke="hsl(228.5, 77.2%, 51.5%)" stroke-width="1.5"></path>
        <path d="M690.24 558.29L801.14 696.34" stroke="hsl(228.5, 77.2%, 51.5%)" stroke-width="1.5"></path>
        <path d="M698.42 682.84L698.42 682.84" stroke="hsl(228.5, 77.2%, 51.5%)" stroke-width="1.5"></path>
        <path d="M698.42 682.84L801.14 696.34" stroke="hsl(228.5, 77.2%, 51.5%)" stroke-width="1.5"></path>
        <path d="M698.42 682.84L835.4 517.35" stroke="hsl(228.5, 77.2%, 51.5%)" stroke-width="1.5"></path>
        <path d="M835.4 517.35L835.4 517.35" stroke="hsl(228.5, 77.2%, 51.5%)" stroke-width="1.5"></path>
        <path d="M835.4 517.35L991.38 500.99" stroke="hsl(228.5, 77.2%, 51.5%)" stroke-width="1.5"></path>
        <path d="M835.4 517.35L801.14 696.34" stroke="hsl(228.5, 77.2%, 51.5%)" stroke-width="1.5"></path>
        <path d="M801.14 696.34L801.14 696.34" stroke="hsl(228.5, 77.2%, 51.5%)" stroke-width="1.5"></path>
        <path d="M801.14 696.34L983.81 689.92" stroke="hsl(228.5, 77.2%, 51.5%)" stroke-width="1.5"></path>
        <path d="M801.14 696.34L991.38 500.99" stroke="hsl(228.5, 77.2%, 51.5%)" stroke-width="1.5"></path>
        <path d="M801.14 696.34L846.66 407.51" stroke="hsl(228.5, 77.2%, 51.5%)" stroke-width="1.5"></path>
        <path d="M962.66 342.04L962.66 342.04" stroke="hsl(228.5, 77.2%, 51.5%)" stroke-width="1.5"></path>
        <path d="M962.66 342.04L1091.12 349.5" stroke="hsl(228.5, 77.2%, 51.5%)" stroke-width="1.5"></path>
        <path d="M991.38 500.99L991.38 500.99" stroke="hsl(228.5, 77.2%, 51.5%)" stroke-width="1.5"></path>
        <path d="M991.38 500.99L1095.73 542.32" stroke="hsl(228.5, 77.2%, 51.5%)" stroke-width="1.5"></path>
        <path d="M991.38 500.99L962.66 342.04" stroke="hsl(228.5, 77.2%, 51.5%)" stroke-width="1.5"></path>
        <path d="M983.81 689.92L983.81 689.92" stroke="hsl(228.5, 77.2%, 51.5%)" stroke-width="1.5"></path>
        <path d="M983.81 689.92L1148.05 647.14" stroke="hsl(228.5, 77.2%, 51.5%)" stroke-width="1.5"></path>
        <path d="M983.81 689.92L1095.73 542.32" stroke="hsl(228.5, 77.2%, 51.5%)" stroke-width="1.5"></path>
        <path d="M983.81 689.92L991.38 500.99" stroke="hsl(228.5, 77.2%, 51.5%)" stroke-width="1.5"></path>
        <path d="M1107.13 205.99L1107.13 205.99" stroke="hsl(228.5, 77.2%, 51.5%)" stroke-width="1.5"></path>
        <path d="M1107.13 205.99L1091.12 349.5" stroke="hsl(228.5, 77.2%, 51.5%)" stroke-width="1.5"></path>
        <path d="M1107.13 205.99L1276.94 236.5" stroke="hsl(228.5, 77.2%, 51.5%)" stroke-width="1.5"></path>
        <path d="M1107.13 205.99L962.66 342.04" stroke="hsl(228.5, 77.2%, 51.5%)" stroke-width="1.5"></path>
        <path d="M1107.13 205.99L1258.22 46.06" stroke="hsl(228.5, 77.2%, 51.5%)" stroke-width="1.5"></path>
        <path d="M1107.13 205.99L1304.21 346.58" stroke="hsl(228.5, 77.2%, 51.5%)" stroke-width="1.5"></path>
        <path d="M1091.12 349.5L1091.12 349.5" stroke="hsl(228.5, 77.2%, 51.5%)" stroke-width="1.5"></path>
        <path d="M1095.73 542.32L1095.73 542.32" stroke="hsl(228.5, 77.2%, 51.5%)" stroke-width="1.5"></path>
        <path d="M1095.73 542.32L1091.12 349.5" stroke="hsl(228.5, 77.2%, 51.5%)" stroke-width="1.5"></path>
        <path d="M1095.73 542.32L1309.08 519.92" stroke="hsl(228.5, 77.2%, 51.5%)" stroke-width="1.5"></path>
        <path d="M1311.86 -50.5L1311.86 -50.5" stroke="hsl(228.5, 77.2%, 51.5%)" stroke-width="1.5"></path>
        <path d="M1311.86 -50.5L1258.22 46.06" stroke="hsl(228.5, 77.2%, 51.5%)" stroke-width="1.5"></path>
        <path d="M1311.86 -50.5L1412.14 69.21" stroke="hsl(228.5, 77.2%, 51.5%)" stroke-width="1.5"></path>
        <path d="M1311.86 -50.5L1598.59 -42.59" stroke="hsl(228.5, 77.2%, 51.5%)" stroke-width="1.5"></path>
        <path d="M1311.86 -50.5L1276.94 236.5" stroke="hsl(228.5, 77.2%, 51.5%)" stroke-width="1.5"></path>
        <path d="M1258.22 46.06L1258.22 46.06" stroke="hsl(228.5, 77.2%, 51.5%)" stroke-width="1.5"></path>
        <path d="M1258.22 46.06L1412.14 69.21" stroke="hsl(228.5, 77.2%, 51.5%)" stroke-width="1.5"></path>
        <path d="M1258.22 46.06L1276.94 236.5" stroke="hsl(228.5, 77.2%, 51.5%)" stroke-width="1.5"></path>
        <path d="M1276.94 236.5L1276.94 236.5" stroke="hsl(228.5, 77.2%, 51.5%)" stroke-width="1.5"></path>
        <path d="M1276.94 236.5L1412.14 69.21" stroke="hsl(228.5, 77.2%, 51.5%)" stroke-width="1.5"></path>
        <path d="M1309.08 519.92L1309.08 519.92" stroke="hsl(228.5, 77.2%, 51.5%)" stroke-width="1.5"></path>
        <path d="M1309.08 519.92L1296.9 641.69" stroke="hsl(228.5, 77.2%, 51.5%)" stroke-width="1.5"></path>
        <path d="M1309.08 519.92L1440.91 543.17" stroke="hsl(228.5, 77.2%, 51.5%)" stroke-width="1.5"></path>
        <path d="M1296.9 641.69L1296.9 641.69" stroke="hsl(228.5, 77.2%, 51.5%)" stroke-width="1.5"></path>
        <path d="M1296.9 641.69L1394.64 652.39" stroke="hsl(228.5, 77.2%, 51.5%)" stroke-width="1.5"></path>
        <path d="M1296.9 641.69L1440.91 543.17" stroke="hsl(228.5, 77.2%, 51.5%)" stroke-width="1.5"></path>
        <path d="M1296.9 641.69L1095.73 542.32" stroke="hsl(228.5, 77.2%, 51.5%)" stroke-width="1.5"></path>
        <path d="M1296.9 641.69L1304.21 346.58" stroke="hsl(228.5, 77.2%, 51.5%)" stroke-width="1.5"></path>
        <path d="M1412.14 69.21L1412.14 69.21" stroke="hsl(228.5, 77.2%, 51.5%)" stroke-width="1.5"></path>
        <path d="M1440.91 543.17L1440.91 543.17" stroke="hsl(228.5, 77.2%, 51.5%)" stroke-width="1.5"></path>
        <path d="M1440.91 543.17L1394.64 652.39" stroke="hsl(228.5, 77.2%, 51.5%)" stroke-width="1.5"></path>
        <path d="M1440.91 543.17L1608.22 553.54" stroke="hsl(228.5, 77.2%, 51.5%)" stroke-width="1.5"></path>
        <path d="M1394.64 652.39L1394.64 652.39" stroke="hsl(228.5, 77.2%, 51.5%)" stroke-width="1.5"></path>
        <path d="M1394.64 652.39L1309.08 519.92" stroke="hsl(228.5, 77.2%, 51.5%)" stroke-width="1.5"></path>
        <path d="M1394.64 652.39L1607.45 663.63" stroke="hsl(228.5, 77.2%, 51.5%)" stroke-width="1.5"></path>
        <path d="M1598.59 -42.59L1598.59 -42.59" stroke="hsl(228.5, 77.2%, 51.5%)" stroke-width="1.5"></path>
        <path d="M1598.59 -42.59L1571.81 97.48" stroke="hsl(228.5, 77.2%, 51.5%)" stroke-width="1.5"></path>
        <path d="M1571.81 97.48L1571.81 97.48" stroke="hsl(228.5, 77.2%, 51.5%)" stroke-width="1.5"></path>
        <path d="M1571.81 97.48L1608.95 214.22" stroke="hsl(228.5, 77.2%, 51.5%)" stroke-width="1.5"></path>
        <path d="M1608.95 214.22L1608.95 214.22" stroke="hsl(228.5, 77.2%, 51.5%)" stroke-width="1.5"></path>
        <path d="M1608.95 214.22L1455.27 368.27" stroke="hsl(228.5, 77.2%, 51.5%)" stroke-width="1.5"></path>
        <path d="M1608.95 214.22L1412.14 69.21" stroke="hsl(228.5, 77.2%, 51.5%)" stroke-width="1.5"></path>
        <path d="M1608.95 214.22L1598.59 -42.59" stroke="hsl(228.5, 77.2%, 51.5%)" stroke-width="1.5"></path>
        <path d="M1608.95 214.22L1304.21 346.58" stroke="hsl(228.5, 77.2%, 51.5%)" stroke-width="1.5"></path>
        <path d="M1608.22 553.54L1608.22 553.54" stroke="hsl(228.5, 77.2%, 51.5%)" stroke-width="1.5"></path>
        <path d="M1608.22 553.54L1607.45 663.63" stroke="hsl(228.5, 77.2%, 51.5%)" stroke-width="1.5"></path>
        <path d="M1607.45 663.63L1607.45 663.63" stroke="hsl(228.5, 77.2%, 51.5%)" stroke-width="1.5"></path>
        <path d="M1607.45 663.63L1440.91 543.17" stroke="hsl(228.5, 77.2%, 51.5%)" stroke-width="1.5"></path>
        <path d="M1607.45 663.63L1561.62 371.17" stroke="hsl(228.5, 77.2%, 51.5%)" stroke-width="1.5"></path>
        <circle r="25" cx="-49.88" cy="511.05" fill="url(&quot;#SvgjsRadialGradient1001&quot;)"></circle>
        <circle r="25" cx="846.66" cy="407.51" fill="url(&quot;#SvgjsRadialGradient1001&quot;)"></circle>
        <circle r="25" cx="1148.05" cy="647.14" fill="url(&quot;#SvgjsRadialGradient1001&quot;)"></circle>
        <circle r="25" cx="1304.21" cy="346.58" fill="url(&quot;#SvgjsRadialGradient1001&quot;)"></circle>
        <circle r="25" cx="1455.27" cy="368.27" fill="url(&quot;#SvgjsRadialGradient1001&quot;)"></circle>
        <circle r="25" cx="1561.62" cy="371.17" fill="url(&quot;#SvgjsRadialGradient1001&quot;)"></circle>
        <circle r="5" cx="-76.41" cy="667.86" fill="#8b9ad9"></circle>
        <circle r="5" cx="64.28" cy="524.63" fill="#8b9ad9"></circle>
        <circle r="5" cx="107.61" cy="660.93" fill="#8b9ad9"></circle>
        <circle r="5" cx="188.23" cy="542.18" fill="#8b9ad9"></circle>
        <circle r="5" cx="250.14" cy="652.76" fill="#8b9ad9"></circle>
        <circle r="5" cx="406.7" cy="651.63" fill="#8b9ad9"></circle>
        <circle r="5" cx="690.24" cy="558.29" fill="#8b9ad9"></circle>
        <circle r="5" cx="698.42" cy="682.84" fill="#8b9ad9"></circle>
        <circle r="5" cx="835.4" cy="517.35" fill="#8b9ad9"></circle>
        <circle r="5" cx="801.14" cy="696.34" fill="#8b9ad9"></circle>
        <circle r="5" cx="962.66" cy="342.04" fill="#8b9ad9"></circle>
        <circle r="5" cx="991.38" cy="500.99" fill="#8b9ad9"></circle>
        <circle r="5" cx="983.81" cy="689.92" fill="#8b9ad9"></circle>
        <circle r="5" cx="1107.13" cy="205.99" fill="#8b9ad9"></circle>
        <circle r="5" cx="1091.12" cy="349.5" fill="#8b9ad9"></circle>
        <circle r="5" cx="1095.73" cy="542.32" fill="#8b9ad9"></circle>
        <circle r="5" cx="1311.86" cy="-50.5" fill="#8b9ad9"></circle>
        <circle r="5" cx="1258.22" cy="46.06" fill="#8b9ad9"></circle>
        <circle r="5" cx="1276.94" cy="236.5" fill="#8b9ad9"></circle>
        <circle r="5" cx="1309.08" cy="519.92" fill="#8b9ad9"></circle>
        <circle r="5" cx="1296.9" cy="641.69" fill="#8b9ad9"></circle>
        <circle r="5" cx="1412.14" cy="69.21" fill="#8b9ad9"></circle>
        <circle r="5" cx="1440.91" cy="543.17" fill="#8b9ad9"></circle>
        <circle r="5" cx="1394.64" cy="652.39" fill="#8b9ad9"></circle>
        <circle r="5" cx="1598.59" cy="-42.59" fill="#8b9ad9"></circle>
        <circle r="5" cx="1571.81" cy="97.48" fill="#8b9ad9"></circle>
        <circle r="5" cx="1608.95" cy="214.22" fill="#8b9ad9"></circle>
        <circle r="5" cx="1608.22" cy="553.54" fill="#8b9ad9"></circle>
        <circle r="5" cx="1607.45" cy="663.63" fill="#8b9ad9"></circle>
    </g>
    <defs>
        <mask id="SvgjsMask1000">
            <rect width="1440" height="560" fill="#ffffff"></rect>
        </mask>
        <radialGradient id="SvgjsRadialGradient1001">
            <stop stop-color="#ffffff" offset="0.1"></stop>
            <stop stop-color="#1735b3" offset="0.2"></stop>
            <stop stop-color="rgba(23, 53, 179, 0)" offset="1"></stop>
        </radialGradient>
    </defs>
</svg>