<svg width="100" height="100" viewBox="0 0 100 100" xmlns="http://www.w3.org/2000/svg" fill="none">
  <!-- Background circle -->
  <circle cx="50" cy="50" r="45" stroke="#1DCFFC" stroke-width="5" fill="none"/>

  <!-- Circuit elements -->
  <line x1="50" y1="20" x2="50" y2="35" stroke="#1DCFFC" stroke-width="2"/>
  <circle cx="50" cy="20" r="3" fill="#1DCFFC"/>

  <line x1="65" y1="50" x2="80" y2="50" stroke="#1DCFFC" stroke-width="2"/>
  <circle cx="80" cy="50" r="3" fill="#1DCFFC"/>

  <line x1="35" y1="50" x2="20" y2="50" stroke="##1DCFFC" stroke-width="2"/>
  <circle cx="20" cy="50" r="3" fill="#1DCFFC"/>

  <line x1="50" y1="65" x2="50" y2="80" stroke="#1DCFFC" stroke-width="2"/>
  <circle cx="50" cy="80" r="3" fill="#1DCFFC"/>

  <!-- Document icon -->
  <rect x="40" y="35" width="20" height="30" rx="2" ry="2" fill="#e0e0e0" stroke="#1DCFFC" stroke-width="2"/>
  <line x1="45" y1="40" x2="55" y2="40" stroke="#1DCFFC" stroke-width="2"/>
  <line x1="45" y1="47" x2="55" y2="47" stroke="##1DCFFC" stroke-width="2"/>
  <line x1="45" y1="54" x2="55" y2="54" stroke="##1DCFFC" stroke-width="2"/>

  <!-- Lightning bolt icon -->
  <polygon points="55,55 48,70 52,70 45,85" fill="#1DCFFC"/>
  <polygon points="55,55 62,45 58,45 65,30" fill="#1DCFFC"/>
</svg>
