<?xml version="1.0" encoding="utf-8"?>
<!-- Svg Vector Icons : http://www.onlinewebfonts.com/icon -->
<!DOCTYPE svg PUBLIC "-//W3C//DTD SVG 1.1//EN" "http://www.w3.org/Graphics/SVG/1.1/DTD/svg11.dtd">
<svg version="1.1" xmlns="http://www.w3.org/2000/svg" xmlns:xlink="http://www.w3.org/1999/xlink" x="0px" y="0px" viewBox="0 0 256 256" enable-background="new 0 0 256 256" xml:space="preserve">
<metadata> Svg Vector Icons : http://www.onlinewebfonts.com/icon </metadata>
<g><g><g><path fill="#fff" d="M117.6,18.7C94,20.9,70.9,29,53,41.6c-11.6,8.2-23.6,20.9-29.9,31.6c-7.8,13.3-11.7,25.9-12.9,41.3c-1.9,24.7,7,50,24.7,69.9l3.5,4l-11.4,20.9c-10.2,18.6-11.3,21.1-11.4,23.1c0,1.8,0.2,2.4,1.3,3.6c0.9,0.9,2.1,1.5,3.1,1.7c1.6,0.2,3.9-0.8,27.5-12.7l25.8-13l5.7,2.3c15.9,6.3,27.8,8.7,45.1,9.1c12.1,0.3,18.3-0.1,28.6-2c12.1-2.2,22.2-5.5,33.5-11c29.9-14.7,51.4-41.3,57.7-71.6c4.7-22.4,0.8-45.1-10.9-64.7c-5.8-9.8-15.8-21.1-24.8-28.3c-17.9-14.3-37.5-22.7-60.7-26.2C140.1,18.4,124.8,18,117.6,18.7z M134.7,53c14.8,2.8,26,11,31.8,23c2.8,6,3.6,9.6,3.4,16.1c-0.2,5.8-1.3,9.9-4.2,14.6c-2.3,3.9-9.1,10.6-14.7,14.3c-5.7,3.8-8.8,6.4-12,10.1c-2.5,2.9-6,9.6-6.8,13.3c-2.3,9.7-9.6,12.6-14.1,5.6c-3.4-5.2-4.7-15.8-2.8-22.9c2.4-8.9,7.9-16.1,16.9-22.1c6.3-4.2,9-8.3,9-13.4c0-5-2.5-8.4-7.8-10.9c-2.5-1.2-3.3-1.3-7.8-1.3c-7.5,0-11.3,1.2-17.5,5.8c-2.1,1.5-4.7,3-5.8,3.5c-8.4,3-16.2-3.4-16.2-13.1c0-4.9,1-7.2,4.8-11C100.8,54.5,118.4,49.9,134.7,53z M132.3,166.7c3.8,1.2,7.2,4.1,9,7.8c1.2,2.3,1.3,3.1,1.3,7c0,3.5-0.2,4.8-1,6.5c-1.4,3.1-4.1,5.8-7.2,7.5c-2.6,1.4-3.1,1.5-7.7,1.5c-4.3,0-5.1-0.1-7.4-1.2c-5.3-2.5-8.3-7.2-8.7-13.4c-0.3-4.8,0.7-8,3.5-11.1C118.5,166.3,125.4,164.6,132.3,166.7z"/></g></g></g>
</svg>